<svg xmlns="http://www.w3.org/2000/svg" width="41" height="26" viewBox="0 0 41 26"><defs><style>.a{fill:#a40127;}.b,.c{fill:#fff;}.c{fill-rule:evenodd;}</style></defs><rect class="a" width="41" height="26" rx="13"/><g transform="translate(10.656 4)"><path class="b" d="M11.748,12.375a.5.5,0,0,1,.5.5v5.971a.5.5,0,0,1-1,0V12.873A.5.5,0,0,1,11.748,12.375Zm2.488,0a.5.5,0,0,1,.5.5v5.971a.5.5,0,0,1-1,0V12.873A.5.5,0,0,1,14.235,12.375Zm2.985.5a.5.5,0,1,0-1,0v5.971a.5.5,0,0,0,1,0Z" transform="translate(-4.392 -6.902)"/><path class="c" d="M16.312,2.985a1,1,0,0,1-1,1h-.5v8.956a1.99,1.99,0,0,1-1.99,1.99H6.858a1.99,1.99,0,0,1-1.99-1.99V3.981h-.5a1,1,0,0,1-1-1v-1a1,1,0,0,1,1-1H7.853a1,1,0,0,1,1-1h1.99a1,1,0,0,1,1,1h3.483a1,1,0,0,1,1,1Zm-10.332,1-.118.059v8.9a1,1,0,0,0,1,1h5.971a1,1,0,0,0,1-1v-8.9l-.117-.059Zm-1.61-1v-1H15.317v1Z"/></g></svg>